/* XPM */
static char *fractals[] = {
/* columns rows colors chars-per-pixel */
"256 64 5 1 ",
"  c black",
". c #555555",
"X c #AAAAAA",
"o c white",
"O c None",
/* pixels */
"oooooooooooooooooooooooooooooooooooooooooooooooooooooooooooooooooooooooooooooooooooooooooooooooooooooooooooooooooooooooooooooooooooooooooooooooooooooooooooooooooooooooooooooooooooooooooooooooooooooooooooooooooooooooooooooooooooooooooooooooooooooooooooooooo",
"oooooooooooooooooooooooooooooooooooooooooooooooooooooooooooooooooooooooooooooooooooooooooooooooooooooooooooooooooooooooooooooooooooooooooooooooooooooooooooooooooooooooooooooooooooooooooooooooooooooooooooooooooooooooooooooooooooooooooooooooooooooooooooooooo",
"oooooooooooooooooooooooooooooooooooooooooooooooooooooooooooooooooooooooooooooooooooooooooooooooooooooooooooooooooooooooooooooooooooooooooooooooooooooooooooooooooooooooooooooooooooooooooooooooooooooooooooooooooooooooooooooooooooooooooooooooooooooooooooooooo",
"oooooooooooooooooooooooooooooooooooooooooooooooooooooooooooooooooooooooooooooooooooooooooooooooooooooooooooooooooooooooooooooooooooooooooooooooooooooooooooooooooooooooooooooooooooooooooooooooooooooooooooooooooooooooooooooooooooooooooooooooooooooooooooooooo",
"oooooooooooooooooooooooooooooooooooooooooooooooooooooooooooooooooooooooooooooooooooooooooooooooooooooooooooooooooooooooooooooooooooooooooooooooooooooooooooooooooooooooooooooooooooooooooooooooooooooooooooooooooooooooooooooooooooooooooooooooooooooooooooooooo",
"oooooooooooooooooooooooooooooooooooooooooooooooooooooooooooooooooooooooooooooooooooooooooooooooooooooooooooooooooooooooooooooooooooooooooooooooooooooooooooooooooooooooooooooooooooooooooooooooooooooooooooooooooooooooooooooooooooooooooooooooooooooooooooooooo",
"oooooooooooooooooooooooooooooooooooooooooooooooooooooooooooooooooooooooooooooooooooooooooooooooooooooooooooooooooooooooooooooooooooooooooooooooooooooooooooooooooooooooooooooooooooooooooooooooooooooooooooooooooooooooooooooooooooooooooooooooooooooooooooooooo",
"ooo.................XoooooooooooooooooX.................oooooooooooo......oooooo......oooooooooooooooooX.....XoooooX.....Xooooooooooo..oo..oooooo..oo..oooooooooooooooooX.XoX.XoooooX.XoX.XoooooooooooXXooXXooooooXXooXXoooooooooooooooooXXXoXXXoooooXXXoXXXoooo",
"ooo OOOOOOOOOOOOOOOO.ooooooooooooooooo.OOOOOOOOOOOOOOOO Xooooooooooo OOOO oooooo OOOO.oooooooooooooooooXOOOOOXooooo.OOOOOXooooooooooo  oo  oooooo  oX .oooooooooooooooooXO.oXO.ooooo.OXo.OXoooooooooooXXooXXooooooXXooXXooooooooooooooooooXXoXXXoooooXXXoXXXoooo",
"ooo OOOOOOOOOOOOOOOO.ooooooooooooooooo.OOOOOOOOOOOOOOOO Xooooooooooo OOOO oooooo OOOO.oooooooooooooooooXOOOOOXooooo.OOOOOXoooooooooooXX..XXooooooXX..XXooooooooooooooooooXX..XoooooooX..XXooooooooooooXoXXXooooooooXXXXXoooooooooooooooooooXXXoooooooooXXXoooooo",
"ooo OOOOOOOOOOOOOOOO.ooooooooooooooooo.OOOOOOOOOOOOOOOO Xooooooooooo OOOO oooooo OOOO.oooooooooooooooooXOOOOOXooooo.OOOOOXooooooooooooo  ooooooooooO.oooooooooooooooooooooXO.ooooooooo.OXoooooooooooooooXXooooooooooXXoooooooooooooooooooooXXXoooooooooXXXoooooo",
"ooo OOOOOOOOOOOOOOOO.ooooooooooooooooo.OOOOOOOOOOOOOOOO Xooooooooooo OOOO oooooo OOOO.oooooooooooooooooXOOOOOXooooo.OOOOOXooooooooooo..XX..oooooo..XX..oooooooooooooooooX..XX.XoooooX.XX..XoooooooooooXXXoXXooooooXXXXXXoooooooooooooooooXXXoXXXoooooXXXoXXXoooo",
"ooo OOOOOOOOOOOOOOOO.ooooooooooooooooo.OOOOOOOOOOOOOOOO Xooooooooooo      oooooX     .oooooooooooooooooX     Xooooo.     Xooooooooooo  oo  oooooo  oX .oooooooooooooooooX .oX .ooooo. Xo. XoooooooooooXXooXXooooooXXooXXooooooooooooooooooXXooXXoooooXXXoXXXoooo",
"ooo OOOOOOOOOOOOOOOO.ooooooooooooooooo.OOOOOOOOOOOOOOOO XoooooooooooXXXXXX......XXXXXXooooooooooooooooooXXXXX......XXXXXXooooooooooooXXooXX..oo..XXooXXooooooooooooooooooXoooXX.XoX.XXoooXooooooooooooooooooXXooXXXooooooooooooooooooooooooooooXXXoXXXoooooooooo",
"ooo OOOOOOOOOOOOOOOO.ooooooooooooooooo.OOOOOOOOOOOOOOOO Xooooooooooooooooo OOOO ooooooooooooooooooooooooooooo.OOOOOXooooooooooooooooooooooo  oo  oooooooooooooooooooooooooooooX Xo. XoooooooooooooooooooooooXXooXXoooooooooooooooooooooooooooooXXXoXXXoooooooooo",
"ooo OOOOOOOOOOOOOOOO.ooooooooooooooooo.OOOOOOOOOOOOOOOO Xooooooooooooooooo OOOO ooooooooooooooooooooooooooooo.OOOOOXoooooooooooooooooooooooXX..XXooooooooooooooooooooooooooooooX..XXooooooooooooooooooooooooooXXXooooooooooooooooooooooooooooooooXXXoooooooooooo",
"ooo OOOOOOOOOOOOOOOO.ooooooooooooooooo.OOOOOOOOOOOOOOOO Xooooooooooooooooo OOOO ooooooooooooooooooooooooooooo.OOOOOXoooooooooooooooooooooooooO ooooooooooooooooooooooooooooooooo.OXoooooooooooooooooooooooooooXXoooooooooooooooooooooooooooooooooXXXoooooooooooo",
"ooo OOOOOOOOOOOOOOOO.ooooooooooooooooo.OOOOOOOOOOOOOOOO Xooooooooooooooooo OOOO ooooooooooooooooooooooooooooo.OOOOOXooooooooooooooooooooooo..oX..oooooooooooooooooooooooooooooX Xo. XoooooooooooooooooooooooXXXoXXoooooooooooooooooooooooooooooXXXoXXXoooooooooo",
"ooo OOOOOOOOOOOOOOOO.ooooooooooooooooo.OOOOOOOOOOOOOOOO Xooooooooooooooooo     .ooooooooooooooooooooooooooooo.     Xooooooooooooooooooooooo  oo .oooooooooooooooooooooooooooooX Xo. XoooooooooooooooooooooooXXooXXoooooooooooooooooooooooooooooXXXoXXXoooooooooo",
"ooo OOOOOOOOOOOOOOOO.ooooooooooooooooo.OOOOOOOOOOOOOOOO Xooooooooooo......XXXXXX......oooooooooooooooooX.....XXXXXX......Xooooooooooo..oo..XXooXX..oo..oooooooooooooooooX.XoX.XXoooX..Xo..XoooooooooooXXooXXXoooooXXooXXoooooooooooooooooXXXoXXXoooooXXXoXXXoooo",
"ooo OOOOOOOOOOOOOOOO.ooooooooooooooooo.OOOOOOOOOOOOOOOO Xooooooooooo OOOO oooooo OOOO.oooooooooooooooooXOOOOOXooooo.OOOOOXooooooooooo. oo. oooooo  oX .oooooooooooooooooX .oX Xooooo. Xo. XoooooooooooXXooXXooooooXXooXXooooooooooooooooooXXoXXXoooooXXXoXXXoooo",
"ooo OOOOOOOOOOOOOOOO.ooooooooooooooooo.OOOOOOOOOOOOOOOO Xooooooooooo OOOO oooooo OOOO.oooooooooooooooooXOOOOOXooooo.OOOOOXooooooooooooo..XooooooooX .XooooooooooooooooooooX .ooooooooo. XoooooooooooooooXXXoooooooooXXoooooooooooooooooooooXXXoooooooooXXXoooooo",
"ooo OOOOOOOOOOOOOOOO.ooooooooooooooooo.OOOOOOOOOOOOOOOO Xooooooooooo OOOO oooooo OOOO.oooooooooooooooooXOOOOOXooooo.OOOOOXooooooooooooo  ooooooooooO.oooooooooooooooooooooXO.ooooooooo.OXoooooooooooooooXXooooooooooXXoooooooooooooooooooooXXXoooooooooXXXoooooo",
"ooo OOOOOOOOOOOOOOOO.ooooooooooooooooo.OOOOOOOOOOOOOOOO Xooooooooooo OOOO oooooo OOOO.oooooooooooooooooXOOOOOXooooo.OOOOOXooooooooooo. oo. oooooo  oX .oooooooooooooooooX .oX Xooooo. Xo. XoooooooooooXXXoXXooooooXXooXXoooooooooooooooooXXXoXXXoooooXXXoXXXoooo",
"ooo                 .ooooooooooooooooo.                 Xooooooooooo     .oooooo     .oooooooooooooooooX     Xooooo.     Xooooooooooo. oo. oooooo .oo .oooooooooooooooooX .oX Xooooo. Xo. XoooooooooooXXooXXooooooXXooXXoooooooooooooooooXXXoXXXoooooXXXoXXXoooo",
"ooooooooooooooooooooX                 XooooooooooooooooooooooooooooooooooooooooooooooX     .oooooX     .ooooooooooooooooooooooooooooooooooooooooooooooX..oX .oooooX .oX .oooooooooooooooooooooooooooooooooooooooooooooooXXooXXooooooXXoXXXoooooooooooooooooooooo",
"ooooooooooooooooooooXOOOOOOOOOOOOOOOOOXooooooooooooooooooooooooooooooooooooooooooooooXOOOOO.oooooXOOOOO.ooooooooooooooooooooooooooooooooooooooooooooooX .oX .oooooX .oX .oooooooooooooooooooooooooooooooooooooooooooooooXXooXXooooooXXoXXXoooooooooooooooooooooo",
"ooooooooooooooooooooXOOOOOOOOOOOOOOOOOXooooooooooooooooooooooooooooooooooooooooooooooXOOOOO.oooooXOOOOO.ooooooooooooooooooooooooooooooooooooooooooooooooX .oooooooooX .ooooooooooooooooooooooooooooooooooooooooooooooooooXXXoooooooooXXXoooooooooooooooooooooooo",
"ooooooooooooooooooooXOOOOOOOOOOOOOOOOOXooooooooooooooooooooooooooooooooooooooooooooooXOOOOO.oooooXOOOOO.ooooooooooooooooooooooooooooooooooooooooooooooooXO.oooooooooXO.oooooooooooooooooooooooooooooooooooooooooooooooooooXXoooooooooXXXoooooooooooooooooooooooo",
"ooooooooooooooooooooXOOOOOOOOOOOOOOOOOXooooooooooooooooooooooooooooooooooooooooooooooXOOOOO.oooooXOOOOO.ooooooooooooooooooooooooooooooooooooooooooooooX .oX .oooooX .oX .ooooooooooooooooooooooooooooooooooooooooooooooo.XooXXooooooXXoXXXoooooooooooooooooooooo",
"ooooooooooooooooooooXOOOOOOOOOOOOOOOOOXooooooooooooooooooooooooooooooooooooooooooooooX     .oooooX     XooooooooooooooooooooooooooooooooooooooooooooooX .oX .oooooX .oX .oooooooooooooooooooooooooooooooooooooooooooooooXXooXXoooooXXXoXXXoooooooooooooooooooooo",
"ooooooooooooooooooooXOOOOOOOOOOOOOOOOOXooooooooooooooooooooooooooooooooooooooooooooooooooooX     .ooooooooooooooooooooooooooooooooooooooooooooooooooooooooooX .oX .oooooooooooooooooooooooooooooooooooooooooooooooooooooooooooXXooXXoooooooooooooooooooooooooooo",
"ooooooooooooooooooooXOOOOOOOOOOOOOOOOOXooooooooooooooooooooooooooooooooooooooooooooooooooooXOOOOO.ooooooooooooooooooooooooooooooooooooooooooooooooooooooooooX .oX .oooooooooooooooooooooooooooooooooooooooooooooooooooooooooooXXoXXXoooooooooooooooooooooooooooo",
"ooooooooooooooooooooXOOOOOOOOOOOOOOOOOXooooooooooooooooooooooooooooooooooooooooooooooooooooXOOOOO.ooooooooooooooooooooooooooooooooooooooooooooooooooooooooooooX .ooooooooooooooooooooooooooooooooooooooooooooooooooooooooooooooXXXoooooooooooooooooooooooooooooo",
"ooooooooooooooooooooXOOOOOOOOOOOOOOOOOXooooooooooooooooooooooooooooooooooooooooooooooooooooXOOOOO.ooooooooooooooooooooooooooooooooooooooooooooooooooooooooooooX .ooooooooooooooooooooooooooooooooooooooooooooooooooooooooooooooXXXoooooooooooooooooooooooooooooo",
"ooooooooooooooooooooXOOOOOOOOOOOOOOOOOXooooooooooooooooooooooooooooooooooooooooooooooooooooXOOOOO.ooooooooooooooooooooooooooooooooooooooooooooooooooooooooooX .oX .oooooooooooooooooooooooooooooooooooooooooooooooooooooooooooXXooXXoooooooooooooooooooooooooooo",
"ooooooooooooooooooooXOOOOOOOOOOOOOOOOOXooooooooooooooooooooooooooooooooooooooooooooooooooooX     .ooooooooooooooooooooooooooooooooooooooooooooooooooooooooooX .oX .ooooooooooooooooooooooooooooooooooooooooooooooooooooooooooXXXooXXoooooooooooooooooooooooooooo",
"ooooooooooooooooooooXOOOOOOOOOOOOOOOOOXooooooooooooooooooooooooooooooooooooooooooooooX     .oooooX     XooooooooooooooooooooooooooooooooooooooooooooooX .oX .oooooX .oX .oooooooooooooooooooooooooooooooooooooooooooooooXXooXXooooooXXooXXoooooooooooooooooooooo",
"ooooooooooooooooooooXOOOOOOOOOOOOOOOOOXooooooooooooooooooooooooooooooooooooooooooooooXOOOOO.oooooXOOOOO.ooooooooooooooooooooooooooooooooooooooooooooooo..XX..oooooX..XX.XoooooooooooooooooooooooooooooooooooooooooooooooXXoXXXooooooXXoXXXoooooooooooooooooooooo",
"ooooooooooooooooooooXOOOOOOOOOOOOOOOOOXooooooooooooooooooooooooooooooooooooooooooooooXOOOOO.oooooXOOOOO.ooooooooooooooooooooooooooooooooooooooooooooooooX .oooooooooX .oooooooooooooooooooooooooooooooooooooooooooooooooooXXoooooooooXXXoooooooooooooooooooooooo",
"ooooooooooooooooooooXOOOOOOOOOOOOOOOOOXooooooooooooooooooooooooooooooooooooooooooooooXOOOOO.oooooXOOOOO.ooooooooooooooooooooooooooooooooooooooooooooooooX .oooooooooX .ooooooooooooooooooooooooooooooooooooooooooooooooooXXXoooooooooXXXoooooooooooooooooooooooo",
"ooooooooooooooooooooXOOOOOOOOOOOOOOOOOXooooooooooooooooooooooooooooooooooooooooooooooXOOOOO.oooooXOOOOO.ooooooooooooooooooooooooooooooooooooooooooooooX .oX .oooooX .oXO.ooooooooooooooooooooooooooooooooooooooooooooooo.XooXXooooooXXooXXoooooooooooooooooooooo",
"ooooXXXXXXXXXXXXXXXXX.................XXXXXXXXXXXXXXXXXooooooooooooooXXXXooooooooXXXXX......oooooX......XXXXXoooooooXXXXXoooooooooooooXoooooooooooooooX..oX..oooooX..oX..XoooXoooooooXoooXooooooooooooooooooooooooooooooXXooXXooooooXXoXXXoooooooooooooooooooooo",
"ooo OOOOOOOOOOOOOOOO.ooooooooooooooooo.OOOOOOOOOOOOOOOO Xooooooooooo OOOO oooooo OOOO.oooooooooooooooooXOOOOOXooooo.OOOOOXooooooooooo  oo  oooooo  oX .oooooooooooooooooXO.oXO.ooooo.OXo.OXoooooooooooXXooXXooooooXXooXXoooooooooooooooooXXXoXXXoooooXXXoXXXoooo",
"ooo OOOOOOOOOOOOOOOO.ooooooooooooooooo.OOOOOOOOOOOOOOOO Xooooooooooo OOOO oooooo OOOO.oooooooooooooooooXOOOOOXooooo.OOOOOXooooooooooo..XX..oooooo..XX..oooooooooooooooooX..XX.XoooooX.XX..XoooooooooooXXXoXXooooooXXXXXXoooooooooooooooooXXXoXXXoooooXXXoXXXoooo",
"ooo OOOOOOOOOOOOOOOO.ooooooooooooooooo.OOOOOOOOOOOOOOOO Xooooooooooo OOOO oooooo OOOO.oooooooooooooooooXOOOOOXooooo.OOOOOXooooooooooooo  oooooooooo .oooooooooooooooooooooX .ooooooooo. XoooooooooooooooXXooooooooooXXoooooooooooooooooooooXXXoooooooooXXXoooooo",
"ooo OOOOOOOOOOOOOOOO.ooooooooooooooooo.OOOOOOOOOOOOOOOO Xooooooooooo OOOO oooooo OOOO.oooooooooooooooooXOOOOOXooooo.OOOOOXoooooooooooXX..XXooooooXX..XXooooooooooooooooooXX..XoooooooX..XXooooooooooooooXXXooooooooXXXoooooooooooooooooooooXXXoooooooooXXXoooooo",
"ooo OOOOOOOOOOOOOOOO.ooooooooooooooooo.OOOOOOOOOOOOOOOO Xooooooooooo OOOO oooooo OOOO.oooooooooooooooooXOOOOOXooooo.OOOOOXooooooooooo  oo  oooooo  oX .oooooooooooooooooXO.oXO.ooooo.OXo.OXoooooooooooXXooXXooooooXXooXXooooooooooooooooooXXoXXXoooooXXXoXXXoooo",
"ooo OOOOOOOOOOOOOOOO.ooooooooooooooooo.OOOOOOOOOOOOOOOO Xooooooooooo......XXXXXX......oooooooooooooooooX.....XXXXXX......Xooooooooooo..oo..XXooXX..oo..oooooooooooooooooX.XoX.XXoooX..XoX.XoooooooooooXXooXXXooooXXXooXXoooooooooooooooooXXXoXXXoooooXXXoXXXoooo",
"ooo OOOOOOOOOOOOOOOO.ooooooooooooooooo.OOOOOOOOOOOOOOOO Xooooooooooooooooo OOOO ooooooooooooooooooooooooooooo.OOOOOXooooooooooooooooooooooo  oo  oooooooooooooooooooooooooooooXOXo.OXoooooooooooooooooooooooXXooXXoooooooooooooooooooooooooooooXXXoXXXoooooooooo",
"ooo OOOOOOOOOOOOOOOO.ooooooooooooooooo.OOOOOOOOOOOOOOOO Xooooooooooooooooo OOOO ooooooooooooooooooooooooooooo.OOOOOXooooooooooooooooooooooo..XX..oooooooooooooooooooooooooooooX.XX..XoooooooooooooooooooooooXXXXXXoooooooooooooooooooooooooooooXXXoXXXoooooooooo",
"ooo OOOOOOOOOOOOOOOO.ooooooooooooooooo.OOOOOOOOOOOOOOOO Xooooooooooooooooo OOOO ooooooooooooooooooooooooooooo.OOOOOXooooooooooooooooooooooooo  ooooooooooooooooooooooooooooooooo. XoooooooooooooooooooooooooooXXoooooooooooooooooooooooooooooooooX.Xoooooooooooo",
"ooo OOOOOOOOOOOOOOOO.ooooooooooooooooo.OOOOOOOOOOOOOOOO Xooooooooooooooooo OOOO ooooooooooooooooooooooooooooo.OOOOOXoooooooooooooooooooooooXX..XXooooooooooooooooooooooooooooooX..XXooooooooooooooooooooooooXXXXXXoooooooooooooooooooooooooooooooXXXoooooooooooo",
"ooo OOOOOOOOOOOOOOOO.ooooooooooooooooo.OOOOOOOOOOOOOOOO Xooooooooooooooooo OOOO ooooooooooooooooooooooooooooo.OOOOOXooooooooooooooooooooooo  oo  oooooooooooooooooooooooooooooXOXo.OXoooooooooooooooooooooooXXooXXoooooooooooooooooooooooooooooX.XoX.Xoooooooooo",
"ooo OOOOOOOOOOOOOOOO.ooooooooooooooooo.OOOOOOOOOOOOOOOO XoooooooooooXXXXXX......XXXXXXooooooooooooooooooXXXXX......XXXXXXooooooooooooXXooXX..oo..XXooXXooooooooooooooooooXXooXX.XoX.XXooXXooooooooooooXoooXXXXooXXXXooXXoooooooooooooooooooXoooXXXoXXXoooXoooooo",
"ooo OOOOOOOOOOOOOOOO.ooooooooooooooooo.OOOOOOOOOOOOOOOO Xooooooooooo OOOO oooooo OOOO.oooooooooooooooooXOOOOOXooooo.OOOOOXooooooooooo  oo  oooooo  oX .oooooooooooooooooXO.oXO.ooooo.OXo.OXoooooooooooXXooXXooooooXXooXXooooooooooooooooooXXoXXXoooooXXXoXXXoooo",
"ooo OOOOOOOOOOOOOOOO.ooooooooooooooooo.OOOOOOOOOOOOOOOO Xooooooooooo OOOO oooooo OOOO.oooooooooooooooooXOOOOOXooooo.OOOOOXooooooooooo..XX..oooooo..XX..oooooooooooooooooX..XX.XoooooX.XX..XoooooooooooXXXXXXooooooXXXXXXoooooooooooooooooXXXoXXXoooooXXXoXXXoooo",
"ooo OOOOOOOOOOOOOOOO.ooooooooooooooooo.OOOOOOOOOOOOOOOO Xooooooooooo OOOO oooooo OOOO.oooooooooooooooooXOOOOOXooooo.OOOOOXooooooooooooo  oooooooooo .oooooooooooooooooooooX .ooooooooo. XoooooooooooooooXXooooooooooXXoooooooooooooooooooooo.XoooooooooX.ooooooo",
"ooo OOOOOOOOOOOOOOOO.ooooooooooooooooo.OOOOOOOOOOOOOOOO Xooooooooooo OOOO oooooo OOOO.oooooooooooooooooXOOOOOXooooo.OOOOOXoooooooooooXX..XXooooooXX..XXooooooooooooooooooXX.XXXoooooXX..XXooooooooooooXXXXXXooooooXXXXXXooooooooooooooooooXXXXoXoooooooXXXoooooo",
"ooo OOOOOOOOOOOOOOOO.ooooooooooooooooo.OOOOOOOOOOOOOOOO Xooooooooooo OOOO oooooo OOOO.oooooooooooooooooXOOOOOXooooo.OOOOOXooooooooooo  oo  oooooo  oX .oooooooooooooooooXO.oXO.ooooo.OXo.OXoooooooooooXXooXXooooooXXooXXooooooooooooooooooXXoo.XoooooX.XoX.ooooo",
"ooo.................XoooooooooooooooooX.................oooooooooooo......oooooo.....XoooooooooooooooooX.....XoooooX.....oooooooooooo..oo..oooooo..oo.XoooooooooooooooooX.XoX.XoooooX.XoX.XoooooooooooXXooXXooooooXXooXXoooooooooooooooooXXXoXXXoooooXXXoXXXoooo",
"oooooooooooooooooooooooooooooooooooooooooooooooooooooooooooooooooooooooooooooooooooooooooooooooooooooooooooooooooooooooooooooooooooooooooooooooooooooooooooooooooooooooooooooooooooooooooooooooooooooooooooooooooooooooooooooooooooooooooooooooooooooooooooooooo",
"oooooooooooooooooooooooooooooooooooooooooooooooooooooooooooooooooooooooooooooooooooooooooooooooooooooooooooooooooooooooooooooooooooooooooooooooooooooooooooooooooooooooooooooooooooooooooooooooooooooooooooooooooooooooooooooooooooooooooooooooooooooooooooooooo",
"oooooooooooooooooooooooooooooooooooooooooooooooooooooooooooooooooooooooooooooooooooooooooooooooooooooooooooooooooooooooooooooooooooooooooooooooooooooooooooooooooooooooooooooooooooooooooooooooooooooooooooooooooooooooooooooooooooooooooooooooooooooooooooooooo"
};
