/* XPM */
static char *_539365690714[] = {
/* columns rows colors chars-per-pixel */
"184 48 90 1 ",
"  c #5E9E62",
". c #609B63",
"X c #5EA163",
"o c #62A367",
"O c #65A46B",
"+ c #6AA66D",
"@ c #66A86B",
"# c #6BA96E",
"$ c #6BA671",
"% c #6EAA73",
"& c #6EAD78",
"* c #71AC76",
"= c #73AD79",
"- c #79AE7D",
"; c #76B07B",
": c #7BB17E",
"> c #7EAE82",
", c #7DB382",
"< c #80AF83",
"1 c #82B485",
"2 c #82B887",
"3 c #85B68A",
"4 c #88B78C",
"5 c #85B88A",
"6 c #8AB98D",
"7 c #89B790",
"8 c #86B990",
"9 c #8DBB92",
"0 c #92BD95",
"q c #94BE99",
"w c #9ABF9C",
"e c #9EBFA0",
"r c #91C094",
"t c #96C19B",
"y c #9AC39D",
"u c #9CC4A1",
"i c #A2C5A4",
"p c #A3C9A6",
"a c #A3C7AB",
"s c #A9C7AB",
"d c #A6C9A9",
"f c #AACCAD",
"g c #B0CFAF",
"h c #ADD0AF",
"j c #ADCEB1",
"k c #B1CEB4",
"l c #AFD1B3",
"z c #B3D2B5",
"x c #B6D3BA",
"c c #BBD6BD",
"v c #B7D8B9",
"b c #BDD8BE",
"n c #C1DABF",
"m c #BED6C1",
"M c #BDD9C2",
"N c #C1D7C3",
"B c #C3DBC5",
"V c #C5D7C9",
"C c #C6DCC9",
"Z c #CADDCC",
"A c #C9DBC5",
"S c #D1DFCE",
"D c #CCDDD1",
"F c #C6E0CA",
"G c #CCE1CE",
"H c #D1E0CD",
"J c #CEE2D1",
"K c #D3E3D4",
"L c #D8E6D6",
"P c #D6E6DA",
"I c #DAE6DB",
"U c #DCE9DD",
"Y c #DEEAE0",
"T c #E3EDE4",
"R c #E6EDE9",
"E c #E9EFEA",
"W c #E5F0E6",
"Q c #E9F2E7",
"! c #E7F1E9",
"~ c #ECF2EC",
"^ c #F1F3EF",
"/ c #EEF4F1",
"( c #F7F7F7",
") c #F8F6F6",
"_ c #F6F8F6",
"` c #F8F8F6",
"' c #F7F7F9",
"] c #F9F7F9",
"[ c #F7F9F9",
"{ c #FBFAFB",
/* pixels */
"((((((('((((((((((](((((((((((((((((((((((((((((((((((((((((('((((((((((((((((((('(((((((`((((((((((]((((((((((((((((((((((((((((]((((((((((((((((((('((((((((((((((((((((((''((((((((((",
"((((('((((((((((((((((((('((('('((((((((((((((('((('(((((((((((((((((((((((((((]((((`(((('((((((((((((((((](((((((((((((((((('(((((((((((((]((((((((((((((((((((((((('((((((''((('(((('(",
"((((((((((((((((((((((((((((((((((((((((('((((((((((((('(((((((((('`((((((((''(((('('(((((((((((((((('(((((((((((((('((('(((((((((((((((''((('((((((`(((((((((((]((((((((((((((((`(('(((",
"(((((((((((((]((((((('('(((((((((((((({(((((((('((((((((']((((`'(((`(((((((('(((((`(((((((('((((((((('''((((((({((((((((((((((((((((((]((''((((('((('((((((((((((((((((((]((((('((((`(((",
"((((('(((((((`((((('((''((((('((((((((((((((((((((((((((((((((((((((((((((`('((((((((((`((((('((((((((('(((](((((((((('((((('((((((((((((((((((((((((((((((((((((((((((((('(((((((((('((",
"(((((((((((((((`(]((((]((((((((((((((('((((((((((((((('(((((((((((((((((((`((((((((('((('`((``((((((((``(((((((((((((]''((((((((((](((((((((((((((((((((((((((((((('((((((((((((((('(`((",
"((((((((((((((``(((((((((''(`'{{{{{{''(((((](''(((((`(((((''((((((((((({((('((`('(((((('((((`(((((((((`((((](((]'((((((''`(('(((((((((((((('(((((`'((`(((((((((((((((((((((((('((`((((((",
"('('(((((((((({((((((((('(({{{^TULU!'{{{((((((''({('(((((`'((((((((((((((('(((((`((((((((((((((((((((((((((((((((((((((((((((((((((((((((((((('(('((((('(((('((_(((((((](((((((('(((((((",
"(((((((((`((((((``(((''(({(RGcdu09tujmJ~{'`{((((((((((((((('(((((`(((((((`(((((((('((((((((('((((((((((((((((((((((((`(((((`(((((((((((())(((((('((((`((((((_(('(`(('`(((((((((((((((('(",
"((((((((('(((((((`((('{/{Tci,OO@#$#OO@3dNW{^{('((((((((((((`((((('((((`(`(((((((((((((((('((((((((((((((((((((((((((``((({(((``(((((((((((('(_(_((`(((((((((_((_('((((((((((('((((((((((",
"(((((((((((((((`(((('{JJZr+$**=*=*****%$OdUHI{((((((`'(('((((((((((((((((]((((((`(((('((((((((((((((((((``('(((((((`)((({W(((`(((((((((((((((()_(((((((((((((`(`(((((((('(((('((('((((`(",
"('((('((((('(('((((`(U6f+%=&***=*%****%=*#,dwT'`((((((((((((``((((((('(((((((((((('((`(((((((((((((((((((`{'((((((((((({EiI((((((((((((((((((())(((((((((((((((((((((('((((((`(((((('(((",
"((((((((((((('(((((`Q1x,%=%********=*****-+6d0`((((((('(((((((((`((((((((](((({((((((((((((((('((('''(((((((((((((((`((E6**B~(((((((((((()((``)`((((((((('((((((((((((((((((((((((((((((",
"(((((((('`(((`((((`(Vc1*,y-*%******%****tg,*qdA((((((((((((((('(``((('(((''((((('`((((`'((('(((((('((((`((((((((((((``U,=f5+k~(((((((((('(((``_)((``((`(('(('((('(((`'((`((((((('(((((((",
"((((((((((((((((((](/**;Q{s*****=***=**=_{L=*0{`('(((((((((('(((`TTRTYTTR!_(((]((((('(((((((((((]((((((`((((((((((((`U%;B{{9*2~(((((((((((()^ETTWQE`(!TTT(((((`(((`'(((('('(((('(((('(((",
"((({((((((((((('((](x&=f'{Z#*****=****&:_''6*#U((((('`((`'((`((({3%%%$%**-i(]`(((((((((((((((((((((((('(((((((((((((^**T'{(]N*6`((((((((`)(j:***%*=V{y%%O{(('``((((((((((((((((`((((((((",
"(((((((((((((((((''{-*+I(_L#*****=****&,((]j*%d`''(((((((((((((({6***=****%2!(`((`(((((((((((''(((((((((](((((((((((]EE{(`(((I^'((((((('{V,&*******N{y=**{'(`(((((((((((](('{`((((((((((",
"((((((('(((](((((((_+*$K({K#*=***==***%,(({u**y(''(((((((((((((({6*%*+$@****4'``((]((({{_`{{{(']((((__(({{((((((((((`({{{``{{'(((((`(('{c=**%*+++*#n{y**#{{'((((`((('(({{{(((`(((((((((]",
"(('((((((((((((((((_$**d'{M%*****===*=*=_](***y(((((((]((({`(((({6**:FBBq%**=d'((((({~l1-,>qL]'(((()=->-3c{(((((]](('{Lt<:<,d~{'(((((('B-**%*3zBNu*c{y**+{H(((((((((((_,,6`(((((((((((((",
"(((((((((((((((((('(1&%-U{5************%qTq**%x((((](((((('((((({6=*2(_`!G#**:{(((`{t3-*%&%=,9Y{(((E+%%%%-q{((((({]{R62=*%%*-2t(```(((U:**#2LR~`)ETQ{u**%{N6('``(((((((*$,)(((`(((((((((",
"'((((((((((((((((((`K@**2r=&***=********%3**#6/(((('(((((((((((({4%=3{{({'i**%~(((W0**%OOoo$%*1B{`(/+**O%*%x((((('{F6&*#@oOO#**6R'`('{r**#0T`''`(({('y=*+{N*0~(``_`(((_**1((((((((((((](",
"(((((((((]((((((('{'Qv2OO#%****&%******&%++$tC{{(((((((((((((((({4==2{((([U**%P'((9%*O4gBGcw%*$,K(`/+=%Bw**2{(((({I,#*%rxZAz6O**6`(((I&*%1W'(((((((({i*=+{N**tQ{__`((__**2((((((((((((((",
"'((('(''(((((((((```kqkMu:*%$%######$%$=-4dBw0(((((((((((((((((({7**4{'`((~**#G'{j$*$lL~'{(YC=*%6{(~+*+^Y*=${`'`({9%**BY_{{~Lv#=+d{((d%=#m{`((((`(``{y**%{c**@yQ(`(({(^**2((((((((](((((",
"((((((']((((((((((({-+wzwqpfxcMMNMBMmcxdw0iz<OY{(((((((((((((((`{6**3{`('{b***W(E=*#d({(((({{m*=%c(^+*+))***{`]`(N%=%c{{('(({^d#**T((6***`(((((()`_`{y=*#{c;**#yY{``((`**1((''((](((((((",
"(`((((((((((``((`((P+=%$=4ydlzcbmmcMcxju9>*+%*f^'((((((((((((`(`{6*=2{{{{R,***`'x%*2^{(___`(']d$=;_~$*$Md=*-{````,&%y{{(`((''(_2**f({:**6{(((((]_())(t**#{c=*&*#wL{''(`=*1`(((((((((((((",
"((((`'(('(((((((({Sk**=*=%$+@@oXooXoOO@#%*****qk{{((((((((((('('{6*=1TTTKu%*%6({0**c{((({{__`(~=**~/$=&=#*=:N(``~***Q`((''{((('B*=6{{;**a{(((((((())(y==%{n=*1=*O9Y{((_**2`(((((((((((('",
"('(('(((''((((((`)>C******=***,ytyd,==*=***$*=y=U{`((((((((((((({4**-ttt-O**;K{{:**R((((KG((``{5**R~#**%*%+*+v(`W**2{'((`BI((((~=*,{{;**d{(('((((((){y**#{b**pf;*$9I{(`=%2``(((((]((((((",
"((((((((((((((`(`xoK******%=62t'R({y>16$=*****t10^`((((('((`(((({4***%#%**%&k{{{=*&!{(({%@/(``{y=*U_$&%wwt6$*OY`T%*r{{('Yo6{((_/*=%{[;**q{(((((((((){y**#{b=*d{d,*%,U'/;*2(('(((((((((('",
"((((`(((((]]((`(I%$P%*****:rYj0kJKk=30Z,=**&**y6#c(((((((('((('({7***$#%%***Z`'{=**E((((-2/''']0%;U/$*+_{{E3**p{T**9{'''I1t]_((~=*%{(2**=((((((((((`{y=*#{n=*d'{z>**;T`=*2(((((((('(((((",
"((((((('(((((((~:=+P*=**&*iBYC9+@@#&,BLc=*****i<*%I`(((((((((((({6*=;;::-***$U_{,=*T((((^T](((]2*&W~#&+E(({L***{~**,'('{'T`((((T**-{'w*%%K]`(((((((`{u**%{c==d(({N=*%-U=*1((((((((''('((",
"('(((((((((((((y%*$K+=****19c$%=*=**3kNi*=****x%**,/(`((((`((((({6**2{{{K2%*=6({t**z'(((`(((((!%&*~_#=+^``'^$*$^^;*&E((('{(()_'M**r{(Z%*%9(`('(](((`{u**#{b**d(('{Z=**+**1(((((((((]((((",
"(`'`((((](((((i%*&$I:*****%*~%=%***=*>g#****=#Y%**%>/((((('((((({7**1{'{`(=*=='(c**$~((```((((7=*:'~#=+~(``E$*+~'2**>('((((((_)$**v''{,===i(]((((((({y**#{b**d((''(L==***1((((((((((((((",
"(((((('`(`(({w=***+{F******%KIGvklkCL!q%=****3{3****,[(((((((((({5*=6{((`(B**%U``$==1{((''(`{d***U(~%*$~``(N=%={'T%**a{((({''{9**$_(((H#*;=6({''''{_'u**#{N**d((('((T+=**1((``((((`'((((",
"((('((``((((R&****0'_***&***=:,66662,:**=****C{x****=m]]((((('(({6=*2{((((~%*%K`(S%**2C{{{{Ty***r((~#*#!_/z=**k{('w%**wU{{{{G5**%C(((((h****,uNHGz9N{y**%{c;*d`(('(('T=*%2(((`{((((((('(",
"((((((((`(({n*****c'`f$***==**&;;*=***&**&**=_`!***&&9{(((((((']{6**4{((((~**%K(]`d$**-,ty2-**$3^((~#**-:;==*=~`((_3&**-3yt,;=*#p__('_(^uO***;=;==*c{y*=+{c=*d`('((``'Q:%2`(((((((((((((",
"`((('((((((]B%****U(`~2***$+%@#=****%$##***#L`((=**&*q{((((((''({6*=4{((((_+*=K''(~k+$%&=****@6E'((_O**%%%*%=Y``(((E9#%%*==$*##k~({(((((~v##**&%***n{u**%{c=*d(((((((({!1,(`((((('((((((",
"'(`((((((((^iy@**=`(('U%%OiBhMp@*=$;BxMl$%ox`(((u$%$,cG((((((((({,O+={((((_.OOZ](`'~LyO@OOOO,FT{(``~.+OOO@*kU(((((({TZ5O+O+++yK^'((((_(({~Ld$OO+@@OB{qOO.{x@Oi(`(((`((({Ya`(((((((((((((",
"(('(((`(`(((4ax3*Z``(({C0d0959ru+@q9r990a1j_`(((T,>lf2Q`((((]((('KVZK((((('VZZE(({(''!JmczmBU'{(((``BFZZGGKE'(((((((''UBczkNZT(`(((({{(((({~KMvzzbA~'IZZZ{RZZL`((((`(((({E(('((((('`'(((",
"(((((((((`({Z79jK(((((((UI-o%@#fyqc>O@@@cL/](](('LB09j{(((((((((({{{((((((({{{(((```('{``)({{{(((('({({{{{{{((((`((('({{()^]{{((_(('(('_(``'{[^_/_`{({{{{({{{{((((((((((('((((((((((((((",
"(((('((((('('BcT{(((('(`{)Bw:,dKYYTz8=,kT{](((('({_cm~(((((((((((`{{((`(((((((`((((`((((('(((('((((((((`'('((((`(((((`(`(({(`((((__('(('''`([''('(((('''(({('(`(`'((((''((((`(((((((((((",
"((((((('((__({{{((((((((({{WNB_{{{{{KMA({'((((((((({{{(((({(((((((('(((((({((((((())(((((((((((((((`((((((((``('((((((((_)___)(({(_(((((('(((((((((('((((('((({(((((('(('(((''(((((((((`",
"((((((((('({(({{('(((((`('({{{(((({`{{{(((`(((((('((({((((((('(('(('(((((((((((((((((`(((((((((((((((((((((]((((((((((((_)))__)(((((((((('(((((((((('((((({((((((((((((((((((((((('(((('",
"((((((((('(((((('(('(({({(((''(((((''((((((((((((`((((((((((((((]((((((((((((((((((((((((](((((((((((((((((('((((((((((())_))(`_((((((((({((((((((('((('(((((({(((((((((('(('((('(((((((",
"(({(((((((((((((((((((((((((((((((((('('`(((((((((((((((((((((((((((((((((((((((((`'((((((((](((((((((((((((((((((((((((_))__((((((((((((((((((((((((((((({(((((((((((('((((((((`(((((((",
"((((((((((((((((((((((('(((((({(((((((('((((((((((('(((((((('(((((''((((((((((((((((((((((((((((((((((((((((((((((((((((((((_(((`('((((((((((((((((((((((((((((((('(((((((((((``'((((('`",
"(((((((((((((((('((((((((((((((((((((((](((((((((((((((((((((((('(']((((((((((((((((((((](((((((((((((((((''(((((((((('((((((((((((((((((((((((((((((((((((((((((((((((((((((((`(((`((((",
"((((('(((((((((((((((((((((((((((((((((((((((((('`((`'((((((((((((((((((((((((((((((((((((((](((((((((((](('(('((((((((((((((((((((((((((((((((((((((((((((((((((((((('(((((((('((((('((",
"('((((((('((((((((((((((((((((((((((((((((((((((((((((('((((((((((((((((((((((((((((((((((((((((((((((((((('((((((((((((((((((((('((((((((((('(((((((((((((((((((((((((((((((((((((((((("
};
